<?xml version="1.0" encoding="UTF-8" standalone="no"?>
<!-- Created with Inkscape (http://www.inkscape.org/) -->

<svg
   xmlns:dc="http://purl.org/dc/elements/1.1/"
   xmlns:cc="http://creativecommons.org/ns#"
   xmlns:rdf="http://www.w3.org/1999/02/22-rdf-syntax-ns#"
   xmlns:svg="http://www.w3.org/2000/svg"
   xmlns="http://www.w3.org/2000/svg"
   xmlns:sodipodi="http://sodipodi.sourceforge.net/DTD/sodipodi-0.dtd"
   xmlns:inkscape="http://www.inkscape.org/namespaces/inkscape"
   width="41.675865mm"
   height="41.675758mm"
   viewBox="0 0 41.675865 41.675758"
   version="1.1"
   id="svg576"
   inkscape:version="0.92.1 r15371"
   sodipodi:docname="drawing.svg">
  <defs
     id="defs570" />
  <sodipodi:namedview
     id="base"
     pagecolor="#ffffff"
     bordercolor="#666666"
     borderopacity="1.0"
     inkscape:pageopacity="0.0"
     inkscape:pageshadow="2"
     inkscape:zoom="0.35"
     inkscape:cx="-445.52818"
     inkscape:cy="135.9002"
     inkscape:document-units="mm"
     inkscape:current-layer="layer1"
     showgrid="false"
     fit-margin-top="0"
     fit-margin-left="0"
     fit-margin-right="0"
     fit-margin-bottom="0"
     inkscape:window-width="1920"
     inkscape:window-height="983"
     inkscape:window-x="0"
     inkscape:window-y="27"
     inkscape:window-maximized="1" />
  <metadata
     id="metadata573">
    <rdf:RDF>
      <cc:Work
         rdf:about="">
        <dc:format>image/svg+xml</dc:format>
        <dc:type
           rdf:resource="http://purl.org/dc/dcmitype/StillImage" />
        <dc:title></dc:title>
      </cc:Work>
    </rdf:RDF>
  </metadata>
  <g
     inkscape:label="Layer 1"
     inkscape:groupmode="layer"
     id="layer1"
     transform="translate(-88.775165,-143.1145)">
    <path
       inkscape:connector-curvature="0"
       id="path284"
       style="fill:#429bdb;fill-opacity:1;fill-rule:nonzero;stroke:none;stroke-width:0.03527778"
       d="M 127.36916,184.79026 H 91.857138 c -1.695133,0 -3.081973,-1.38672 -3.081973,-3.08185 v -35.51204 c 0,-1.6951 1.38684,-3.08187 3.081973,-3.08187 h 35.512022 c 1.6951,0 3.08187,1.38677 3.08187,3.08187 v 35.51204 c 0,1.69513 -1.38677,3.08185 -3.08187,3.08185" />
    <path
       inkscape:connector-curvature="0"
       id="path286"
       style="fill:#ffffff;fill-opacity:1;fill-rule:nonzero;stroke:none;stroke-width:0.03527778"
       d="M 126.56377,143.9199 H 92.6626 c -1.695133,0 -3.081973,1.38676 -3.081973,3.08186 v 33.9012 c 0,1.69512 1.38684,3.08184 3.081973,3.08184 h 33.90117 c 1.69509,0 3.08186,-1.38672 3.08186,-3.08184 v -33.9012 c 0,-1.6951 -1.38677,-3.08186 -3.08186,-3.08186 z m 0,0.30832 c 1.52929,0 2.77389,1.24425 2.77389,2.77354 v 33.9012 c 0,1.52934 -1.2446,2.77398 -2.77389,2.77398 H 92.6626 c -1.529468,0 -2.773856,-1.24464 -2.773856,-2.77398 v -33.9012 c 0,-1.52929 1.244388,-2.77354 2.773856,-2.77354 h 33.90117" />
    <path
       inkscape:connector-curvature="0"
       id="path288"
       style="fill:#ffffff;fill-opacity:1;fill-rule:nonzero;stroke:none;stroke-width:0.03527778"
       d="m 109.56919,155.34171 c -4.67734,0.0296 -8.46719,3.80905 -8.47107,8.48155 -0.004,4.68271 3.77666,8.42892 8.34361,8.48777 4.83581,0.0626 8.60806,-3.8227 8.61854,-8.48142 0.0105,-4.66054 -3.80506,-8.47548 -8.49108,-8.4879 z m 0.50105,-4.53139 c 0.20617,0.0142 0.3718,0.0233 0.53732,0.0371 0.0802,0.006 0.15984,0.0215 0.23978,0.0317 0.39285,0.0504 0.78631,0.0979 1.17793,0.15709 0.0354,0.005 0.0821,0.086 0.0846,0.13367 0.0153,0.29986 0.01,0.60113 0.0329,0.90057 0.008,0.10584 0.0598,0.21911 0.12237,0.30731 0.0745,0.10484 0.20038,0.14813 0.324,0.0879 0.1229,-0.0599 0.21082,-0.15709 0.20944,-0.31115 -0.003,-0.29891 -8.2e-4,-0.59796 -8.2e-4,-0.93211 0.1688,0.0391 0.34851,0.0667 0.51869,0.12277 0.39303,0.12982 0.78218,0.2716 1.17133,0.41246 0.11797,0.0427 0.21868,0.10294 0.19374,0.26071 -0.0433,0.27259 -0.0688,0.54888 -0.12319,0.81911 -0.0528,0.2625 -0.001,0.44344 0.16852,0.47833 0.24173,0.0497 0.42253,-0.0903 0.46606,-0.36727 0.0205,-0.13078 0.0254,-0.26416 0.0467,-0.39508 0.0202,-0.12347 0.0528,-0.24486 0.0845,-0.38735 0.0812,0.0325 0.16538,0.0536 0.23703,0.0963 0.4487,0.26747 0.89267,0.54254 1.34246,0.80821 0.13162,0.0776 0.15272,0.17075 0.0992,0.30304 -0.11204,0.277 -0.21815,0.55605 -0.32977,0.83291 -0.0799,0.19829 -0.0218,0.39052 0.14375,0.4597 0.16839,0.0699 0.35881,-0.0197 0.44591,-0.22186 0.0955,-0.22158 0.18274,-0.44662 0.26956,-0.67166 0.0634,-0.16414 0.0973,-0.18108 0.22296,-0.066 0.41081,0.37564 0.81442,0.75943 1.22646,1.13383 0.10418,0.0948 0.0999,0.18839 0.0358,0.28924 -0.14742,0.23249 -0.30247,0.46041 -0.45212,0.6918 -0.0728,0.11257 -0.18644,0.21523 -0.10763,0.37222 0.14499,0.28952 0.38227,0.31527 0.57838,0.0543 0.1487,-0.19763 0.28303,-0.40612 0.42443,-0.60925 0.0284,-0.0409 0.0597,-0.0798 0.11384,-0.15198 0.202,0.26028 0.39871,0.49982 0.57862,0.75061 0.1778,0.24737 0.33691,0.50768 0.508,0.75985 0.0691,0.10237 0.0667,0.18919 -0.0226,0.27767 -0.22436,0.22228 -0.44979,0.44415 -0.66851,0.67208 -0.18828,0.19607 -0.15579,0.38241 0.0716,0.52708 0.1404,0.0892 0.25083,0.017 0.34396,-0.0633 0.18768,-0.16122 0.36089,-0.33969 0.5401,-0.5111 0.15099,-0.14471 0.17709,-0.14538 0.26106,0.0455 0.21731,0.49389 0.4258,0.99204 0.63993,1.48773 0.0508,0.11741 0.0325,0.20631 -0.0773,0.28113 -0.21342,0.14605 -0.42262,0.29778 -0.63394,0.44704 -0.0473,0.0331 -0.0974,0.0624 -0.14358,0.0969 -0.16263,0.12248 -0.21272,0.26924 -0.13864,0.40086 0.0804,0.14249 0.29034,0.2074 0.4572,0.11783 0.18733,-0.10019 0.3623,-0.22366 0.54293,-0.33694 0.0773,-0.0487 0.15451,-0.097 0.27305,-0.17184 0.0621,0.27588 0.12241,0.52462 0.17321,0.77474 0.0674,0.33267 0.12065,0.66781 0.19332,0.99907 0.0388,0.17818 -0.0395,0.27093 -0.18803,0.3302 -0.26141,0.10403 -0.52176,0.21025 -0.78634,0.3055 -0.20214,0.0726 -0.28645,0.22049 -0.21837,0.41628 0.0593,0.16965 0.24307,0.24973 0.42228,0.18094 0.23565,-0.0907 0.46954,-0.18521 0.70555,-0.27545 0.0466,-0.0181 0.0981,-0.024 0.16404,-0.0395 0.006,0.0617 0.0145,0.11105 0.0145,0.16013 8e-4,0.54334 -0.003,1.08659 0.001,1.62979 10e-4,0.17406 -0.043,0.28403 -0.24236,0.30523 -0.30268,0.0328 -0.60254,0.0882 -0.90452,0.13091 -0.17356,0.0247 -0.31009,0.16193 -0.30727,0.31599 0.003,0.16372 0.15346,0.31019 0.3362,0.29781 0.25188,-0.0165 0.50236,-0.0547 0.75353,-0.0821 0.0674,-0.007 0.13512,-0.01 0.23566,-0.0167 -0.0363,0.22296 -0.0607,0.42552 -0.10372,0.6241 -0.0787,0.36477 -0.17321,0.72595 -0.25118,1.09072 -0.0339,0.15917 -0.097,0.24282 -0.27692,0.23043 -0.28787,-0.0197 -0.5775,-0.0194 -0.86608,-0.0279 -0.22965,-0.007 -0.37323,0.0966 -0.38629,0.27838 -0.013,0.18591 0.12207,0.34851 0.33691,0.36862 0.24659,0.0233 0.49565,0.0233 0.74365,0.0342 0.0339,10e-4 0.0674,0.007 0.14676,0.0158 -0.0991,0.24945 -0.18168,0.4862 -0.28575,0.71272 -0.15134,0.3291 -0.32244,0.64865 -0.4759,0.97649 -0.0508,0.10858 -0.11959,0.14883 -0.23107,0.1228 -0.26176,-0.0611 -0.52317,-0.12499 -0.78528,-0.18426 -0.0836,-0.019 -0.16898,-0.0317 -0.25425,-0.0402 -0.14167,-0.0147 -0.25523,0.0353 -0.29877,0.17752 -0.0533,0.17388 0.0163,0.34187 0.17996,0.40252 0.2263,0.0837 0.46019,0.14566 0.69162,0.21593 0.0695,0.0211 0.1404,0.0385 0.24553,0.0667 -0.15381,0.23386 -0.28363,0.4487 -0.43039,0.65088 -0.19932,0.27517 -0.41374,0.53936 -0.61754,0.81139 -0.11327,0.1513 -0.24405,0.14178 -0.39355,0.0652 -0.27577,-0.14069 -0.55179,-0.28138 -0.83126,-0.4148 -0.13144,-0.0624 -0.29777,0.0123 -0.38805,0.16619 -0.0756,0.12873 -0.0495,0.25287 0.064,0.33997 0.11314,0.0868 0.24045,0.15671 0.36587,0.22614 0.17018,0.0943 0.34434,0.18136 0.56497,0.29644 -0.2074,0.19332 -0.38682,0.36904 -0.57545,0.5341 -0.27259,0.23841 -0.55397,0.46634 -0.82698,0.70404 -0.0907,0.0791 -0.17128,0.0801 -0.25947,0.009 -0.21029,-0.1699 -0.41935,-0.34106 -0.62978,-0.5111 -0.1192,-0.0963 -0.23149,-0.23704 -0.40732,-0.1553 -0.0857,0.0399 -0.18372,0.11712 -0.21307,0.19982 -0.0406,0.11451 -0.0324,0.24969 0.0866,0.346 0.20157,0.16372 0.3981,0.33338 0.5964,0.50094 0.0344,0.0289 0.067,0.0603 0.12541,0.11353 -0.22712,0.14471 -0.43409,0.2872 -0.65116,0.41247 -0.2734,0.15737 -0.55862,0.29421 -0.83216,0.45184 -0.28046,0.16164 -0.35913,0.0956 -0.54984,-0.13297 -0.18066,-0.21622 -0.3441,-0.44841 -0.53718,-0.65264 -0.15956,-0.16894 -0.44012,-0.0762 -0.46192,0.14856 -0.0102,0.10583 0.0186,0.23632 0.0776,0.32314 0.1222,0.17914 0.27326,0.33969 0.4185,0.50271 0.15434,0.17321 0.14467,0.21939 -0.0721,0.29284 -0.44031,0.14856 -0.87726,0.30688 -1.32084,0.44482 -0.35391,0.1101 -0.40308,0.10929 -0.62456,-0.28085 -0.11063,-0.1947 -0.19692,-0.40322 -0.29379,-0.60565 -0.0919,-0.19236 -0.24183,-0.25932 -0.41808,-0.1863 -0.18521,0.0769 -0.24296,0.21442 -0.15571,0.42196 0.0887,0.21096 0.18506,0.42016 0.2957,0.62053 0.13342,0.24127 0.13342,0.26914 -0.13738,0.29627 -0.53784,0.0533 -1.07749,0.0893 -1.61575,0.13973 -0.136,0.0127 -0.1965,-0.0395 -0.22779,-0.16619 -0.0716,-0.28966 -0.14937,-0.57848 -0.23012,-0.8661 -0.0619,-0.22077 -0.22987,-0.33335 -0.40365,-0.27933 -0.18133,0.0564 -0.26525,0.25713 -0.20366,0.46922 0.0641,0.2212 0.12277,0.44415 0.18024,0.66739 0.0124,0.0484 0.009,0.10086 0.0146,0.17142 -0.0751,0 -0.13808,0.006 -0.19939,-0.001 -0.58251,-0.0685 -1.16487,-0.13699 -1.74597,-0.21485 -0.0332,-0.005 -0.0768,-0.0897 -0.0792,-0.13903 -0.0147,-0.30028 -0.0115,-0.60109 -0.031,-0.90067 -0.006,-0.097 -0.0453,-0.20313 -0.10128,-0.28251 -0.0768,-0.10901 -0.20299,-0.17117 -0.335,-0.11123 -0.12887,0.059 -0.22162,0.15988 -0.21911,0.3229 0.004,0.29379 0.001,0.58801 0.001,0.92467 -0.17046,-0.04 -0.35955,-0.0699 -0.53908,-0.12926 -0.38227,-0.12584 -0.75847,-0.27051 -1.13951,-0.40076 -0.15173,-0.0514 -0.23262,-0.13434 -0.20588,-0.3037 0.0395,-0.25012 0.0739,-0.50134 0.10915,-0.75213 0.0127,-0.0907 0.028,-0.18164 0.0304,-0.27273 0.004,-0.13476 -0.0783,-0.22821 -0.19886,-0.24652 -0.0892,-0.0134 -0.22779,0.003 -0.27312,0.0613 -0.0875,0.11299 -0.14443,0.26003 -0.17819,0.40157 -0.0531,0.22257 -0.0765,0.45187 -0.11822,0.71504 -0.19378,-0.0911 -0.37634,-0.15875 -0.5402,-0.25795 -0.36435,-0.21967 -0.71808,-0.45709 -1.07887,-0.68294 -0.0936,-0.0586 -0.12718,-0.13078 -0.0892,-0.23181 0.10721,-0.28427 0.20959,-0.57076 0.32865,-0.85051 0.0875,-0.20493 0.0403,-0.39081 -0.14979,-0.48617 -0.14993,-0.0754 -0.33542,8e-4 -0.42252,0.19512 -0.0986,0.22049 -0.18066,0.44884 -0.26512,0.67483 -0.0697,0.18673 -0.0961,0.20186 -0.24101,0.0696 -0.40707,-0.37151 -0.80589,-0.7517 -1.21366,-1.12225 -0.10418,-0.0945 -0.10002,-0.18796 -0.0359,-0.28925 0.1476,-0.23248 0.30317,-0.45999 0.45254,-0.69137 0.0725,-0.11219 0.18687,-0.21484 0.10805,-0.37222 -0.14541,-0.29033 -0.38212,-0.31679 -0.57837,-0.0543 -0.177769,0.23813 -0.341494,0.48673 -0.535663,0.7655 -0.204611,-0.2643 -0.401143,-0.50381 -0.581236,-0.7546 -0.177624,-0.24736 -0.33722,-0.50768 -0.507965,-0.76027 -0.0689,-0.10156 -0.06819,-0.18796 0.02219,-0.27724 0.221051,-0.21732 0.440301,-0.43671 0.65733,-0.6579 0.201331,-0.20574 0.169228,-0.40816 -0.07592,-0.54861 -0.143193,-0.0818 -0.250261,-6.6e-4 -0.342582,0.079 -0.178612,0.15463 -0.343535,0.32495 -0.512904,0.49001 -0.165909,0.16171 -0.188381,0.15952 -0.280173,-0.0479 -0.200061,-0.45187 -0.402237,-0.90275 -0.595031,-1.35748 -0.112289,-0.26529 -0.107879,-0.28815 0.119063,-0.45932 0.229305,-0.17293 0.475438,-0.32357 0.708589,-0.49142 0.118251,-0.085 0.203271,-0.19897 0.139065,-0.35634 -0.06396,-0.15656 -0.195439,-0.2081 -0.352777,-0.18232 -0.07705,0.0127 -0.15547,0.0441 -0.222427,0.0846 -0.157233,0.0956 -0.307446,0.20327 -0.461927,0.30346 -0.06696,0.0437 -0.137654,0.0821 -0.231634,0.13752 -0.07236,-0.23704 -0.15808,-0.45611 -0.204223,-0.68295 -0.07235,-0.35458 -0.110243,-0.71575 -0.178329,-1.07142 -0.03542,-0.18482 0.04135,-0.27933 0.198155,-0.34078 0.25647,-0.1009 0.513609,-0.19971 0.767574,-0.30579 0.134091,-0.0558 0.257563,-0.14898 0.231775,-0.30692 -0.01612,-0.0999 -0.08901,-0.2075 -0.16824,-0.2734 -0.05112,-0.0427 -0.168134,-0.0402 -0.2413,-0.016 -0.2395,0.0805 -0.471981,0.18136 -0.708025,0.27203 -0.0521,0.0201 -0.107773,0.0314 -0.182068,0.0523 -0.0049,-0.0733 -0.01185,-0.12845 -0.01196,-0.18317 -2.91e-4,-0.53756 -5.56e-4,-1.07484 0.0012,-1.61244 8.2e-4,-0.23714 0.0285,-0.26568 0.258656,-0.29986 0.307164,-0.0456 0.614186,-0.0925 0.921491,-0.13836 0.139171,-0.0204 0.275343,-0.17748 0.272027,-0.31432 -0.0037,-0.14884 -0.148555,-0.30579 -0.303036,-0.29627 -0.263349,0.0165 -0.525463,0.0539 -0.788247,0.0812 -0.06696,0.007 -0.134479,0.01 -0.241547,0.0176 0.03761,-0.21953 0.06159,-0.41631 0.106645,-0.60829 0.09165,-0.39148 0.201754,-0.77858 0.289384,-1.17077 0.02907,-0.12996 0.08601,-0.17183 0.210573,-0.16661 0.300002,0.0127 0.600392,0.0183 0.900676,0.0272 0.220769,0.006 0.363256,-0.0907 0.383788,-0.2624 0.02191,-0.18422 -0.111337,-0.36061 -0.320817,-0.38213 -0.252165,-0.0258 -0.507259,-0.0242 -0.760941,-0.0356 -0.03376,-0.002 -0.06724,-0.008 -0.131622,-0.0156 0.04452,-0.13021 0.07486,-0.25259 0.12693,-0.36477 0.205316,-0.44235 0.418782,-0.88124 0.626039,-1.32292 0.05196,-0.11038 0.125131,-0.15515 0.247227,-0.12551 0.27312,0.0665 0.547229,0.1294 0.821161,0.19251 0.06121,0.0142 0.123472,0.0265 0.185914,0.0321 0.145944,0.0142 0.269275,-0.0251 0.31115,-0.18165 0.04769,-0.17857 -0.02082,-0.3405 -0.184926,-0.40044 -0.226554,-0.0828 -0.46094,-0.14428 -0.692186,-0.21417 -0.0696,-0.0211 -0.139735,-0.0402 -0.246274,-0.0706 0.20507,-0.29986 0.387668,-0.57711 0.581413,-0.84666 0.147708,-0.20532 0.309492,-0.40101 0.465349,-0.6011 0.09497,-0.12167 0.20313,-0.1735 0.357329,-0.0945 0.276577,0.1415 0.559647,0.27023 0.836617,0.41092 0.1567,0.0794 0.29242,0.0434 0.40887,-0.12376 0.0872,-0.12524 0.078,-0.27545 -0.0578,-0.36544 -0.21015,-0.13903 -0.43656,-0.2533 -0.65635,-0.37786 -0.0696,-0.0396 -0.13987,-0.0773 -0.23935,-0.13229 0.16301,-0.16193 0.30508,-0.31722 0.46164,-0.45586 0.30053,-0.26691 0.61154,-0.52201 0.91348,-0.7874 0.0979,-0.0857 0.18165,-0.0747 0.27369,-9.8e-4 0.24211,0.19431 0.48549,0.38696 0.7269,0.58208 0.15808,0.12778 0.30056,0.13508 0.43518,0.0176 0.1717,-0.14965 0.18659,-0.30438 0.0197,-0.45833 -0.2027,-0.18658 -0.42072,-0.3569 -0.63168,-0.53481 -0.0303,-0.0256 -0.0583,-0.0539 -0.11261,-0.10431 0.15131,-0.10238 0.28568,-0.20504 0.43092,-0.28858 0.36311,-0.20849 0.73134,-0.40816 1.09735,-0.6121 0.14273,-0.0794 0.26677,-0.0773 0.37895,0.061 0.18465,0.22754 0.37427,0.45117 0.56649,0.67236 0.15738,0.18136 0.29507,0.21456 0.43191,0.11603 0.14785,-0.10612 0.18796,-0.29489 0.0645,-0.47791 -0.14111,-0.20892 -0.31214,-0.3973 -0.46965,-0.59517 -0.0927,-0.11646 -0.0777,-0.17847 0.0656,-0.22409 0.51442,-0.16397 1.03117,-0.32134 1.54488,-0.48754 0.15036,-0.0486 0.25136,-0.0225 0.32343,0.12595 0.13038,0.26927 0.27135,0.53304 0.40432,0.80094 0.12844,0.25852 0.40985,0.30082 0.56155,0.069 0.0447,-0.0684 0.0543,-0.19265 0.0249,-0.27026 -0.085,-0.22462 -0.18863,-0.44411 -0.30276,-0.65578 -0.13394,-0.24832 -0.13945,-0.26487 0.1403,-0.29355 0.52642,-0.0543 1.05502,-0.0878 1.58172,-0.14111 0.16079,-0.0161 0.22556,0.0502 0.2607,0.19308 0.0702,0.28469 0.14528,0.5679 0.2256,0.84984 0.0604,0.21166 0.22504,0.3193 0.39494,0.2709 0.18122,-0.0515 0.27259,-0.25397 0.2165,-0.46493 -0.0719,-0.27092 -0.13864,-0.54295 -0.21802,-0.8559" />
    <path
       inkscape:connector-curvature="0"
       id="path290"
       style="fill:#429bdb;fill-opacity:1;fill-rule:nonzero;stroke:none;stroke-width:0.03527778"
       d="m 101.75047,163.84905 c -0.0393,4.402 3.56115,7.70502 7.49918,7.85591 4.67084,0.17928 8.06248,-3.51219 8.21062,-7.5074 0.17363,-4.67861 -3.53896,-8.06348 -7.54035,-8.20487 -4.63655,-0.16411 -8.21354,3.60814 -8.16945,7.85636 z m 16.37951,0.007 c -0.0763,4.74938 -3.76026,8.50897 -8.53666,8.50262 -4.77671,-0.006 -8.5054,-3.77652 -8.497,-8.52495 0.008,-4.75121 3.75916,-8.50445 8.5309,-8.49245 4.75065,0.012 8.43249,3.75708 8.50276,8.51478" />
    <path
       inkscape:connector-curvature="0"
       id="path292"
       style="fill:#ffffff;fill-opacity:1;fill-rule:nonzero;stroke:none;stroke-width:0.03527778"
       d="m 100.62504,152.68046 -2.317714,-2.26631 -0.736564,-2.14309 c -0.01418,-0.0349 -0.04135,-0.0628 -0.07578,-0.078 l -3.939681,-1.55539 c -0.01877,-0.008 -0.03874,-0.0123 -0.05831,-0.0123 -0.03789,0 -0.07511,0.0148 -0.10294,0.043 l -1.1563,1.16875 c -0.04325,0.0437 -0.05415,0.11007 -0.02702,0.16545 l 1.671178,3.80115 c 0.01679,0.0346 0.04671,0.0606 0.08294,0.0731 l 2.113774,0.56801 2.385378,2.34279 c 0.0273,0.0278 0.06449,0.0434 0.103222,0.0434 0.0014,0 0.0029,0 0.0043,0 0.04025,-0.001 0.07828,-0.0194 0.10474,-0.0497 0.004,-0.005 0.408305,-0.46648 0.931263,-0.96107 0.431484,-0.40816 1.000624,-0.92287 1.006264,-0.92781 0.031,-0.0258 0.0499,-0.0631 0.0519,-0.10336 0.002,-0.0403 -0.0125,-0.0797 -0.0406,-0.10858" />
    <path
       inkscape:connector-curvature="0"
       id="path294"
       style="fill:#ffffff;fill-opacity:1;fill-rule:nonzero;stroke:none;stroke-width:0.03527778"
       d="m 125.20945,179.32965 -0.49953,0.48715 c -0.0413,0.0402 -0.10019,0.0597 -0.15416,0.0615 -0.0582,-8e-4 -0.11219,-0.0241 -0.15276,-0.0658 l -2.33186,-2.40866 c -0.0833,-0.0857 -0.0815,-0.22338 0.004,-0.3066 l 0.49389,-0.48123 c 0.0406,-0.0398 0.0942,-0.0617 0.15134,-0.0617 8e-4,0 0.002,0 0.003,0 0.0579,8e-4 0.11219,0.024 0.1524,0.0656 l 2.33786,2.40291 c 0.0836,0.0857 0.0819,0.22324 -0.004,0.30688 z m 1.54552,-1.77176 c -0.13829,-0.21978 -0.42862,-0.50091 -0.55562,-0.62396 -1.5808,-1.52936 -2.27789,-1.61618 -2.78659,-1.67929 -0.24413,-0.0303 -0.42016,-0.0525 -0.63112,-0.24017 -0.84843,-0.75572 -0.67769,-1.1406 -0.59549,-1.32581 l 0.0134,-0.0306 c 0.0124,-0.0293 0.0254,-0.059 0.0384,-0.0879 0.0843,-0.18838 0.17992,-0.40181 0.0152,-0.55136 l -0.66957,-0.75142 c -0.0709,-0.0783 -0.17074,-0.11825 -0.27693,-0.11963 -0.10548,0.002 -0.2039,0.0505 -0.27093,0.13202 -0.27975,0.33997 -0.84067,1.00114 -1.45563,1.60651 -0.70517,0.69427 -1.44297,1.29011 -1.81998,1.58365 -0.0783,0.0606 -0.12556,0.16331 -0.12968,0.28152 -0.005,0.13078 0.0449,0.25922 0.12816,0.33405 l 0.62964,0.58208 c 0.13518,0.13091 0.30177,0.14386 0.46933,0.036 0.68365,-0.44168 1.04892,-0.15134 1.56856,0.37853 0.22613,0.2304 0.25506,0.4367 0.29527,0.72249 0.0744,0.52849 0.17639,1.25197 1.57304,2.64763 0.0243,0.0236 0.5969,0.58773 0.82832,0.72485 0.0222,0.0135 0.0455,0.028 0.0702,0.0431 0.17674,0.10997 0.42369,0.26348 0.79234,0.26348 0.43392,0 1.03682,-0.21305 1.8923,-0.96063 1.53882,-1.34483 1.21003,-2.43526 0.87736,-2.96514" />
    <path
       inkscape:connector-curvature="0"
       id="path296"
       style="fill:#ffffff;fill-opacity:1;fill-rule:nonzero;stroke:none;stroke-width:0.03527778"
       d="m 96.711818,179.137 -1.043975,1.04429 c -0.03366,0.0335 -0.07828,0.0518 -0.125836,0.0518 -0.01542,0 -0.03087,-0.002 -0.04575,-0.006 l -1.432172,-0.38126 c -0.06149,-0.0163 -0.109855,-0.0646 -0.126259,-0.12594 l -0.381282,-1.43083 c -0.01626,-0.0615 0.0015,-0.12707 0.04614,-0.17184 l 1.045245,-1.04524 c 0.03366,-0.0335 0.07828,-0.052 0.125836,-0.052 0.01542,0 0.03101,0.002 0.046,0.006 l 1.430831,0.38241 c 0.06145,0.0163 0.109679,0.0645 0.125942,0.12594 l 0.381459,1.43126 c 0.01626,0.061 -0.0014,0.12661 -0.04618,0.17141 z m 4.493122,-3.80641 c -0.003,-0.0425 -0.0249,-0.0812 -0.0593,-0.10597 -0.007,-0.005 -0.69039,-0.5037 -1.412772,-1.22619 -0.773641,-0.77364 -1.247528,-1.43192 -1.25222,-1.43866 -0.02466,-0.0346 -0.06325,-0.0564 -0.105551,-0.06 -0.0041,-2.5e-4 -0.0082,-2.5e-4 -0.01214,-2.5e-4 -0.03803,0 -0.07468,0.0147 -0.101988,0.0419 l -2.854746,2.83641 c -0.05098,-0.002 -0.102093,-0.004 -0.152823,-0.004 -0.820879,0 -1.586512,0.31362 -2.155931,0.88304 -0.57986,0.57989 -0.898878,1.35008 -0.898348,2.16916 7.14e-4,0.81707 0.319722,1.58503 0.898489,2.16214 0.577674,0.57714 1.3462,0.89505 2.163939,0.89505 0.817739,0 1.586266,-0.31791 2.163939,-0.89505 0.600957,-0.60219 0.920538,-1.44004 0.882474,-2.3078 l 2.854608,-2.83669 c 0.0302,-0.0296 0.0455,-0.0712 0.0423,-0.11352" />
    <path
       inkscape:connector-curvature="0"
       id="path298"
       style="fill:#ffffff;fill-opacity:1;fill-rule:nonzero;stroke:none;stroke-width:0.03527778"
       d="m 126.8347,149.13289 c -0.0155,-0.0466 -0.0543,-0.0822 -0.10266,-0.0931 -0.0106,-0.003 -0.0215,-0.004 -0.0324,-0.004 -0.0374,0 -0.0737,0.0148 -0.10089,0.042 l -1.67605,1.68201 c -0.25153,0.25538 -0.59161,0.3962 -0.95744,0.3962 -0.38523,0 -0.75212,-0.15352 -1.03223,-0.43173 -0.56021,-0.55647 -0.58243,-1.44928 -0.0494,-1.99009 l 1.67005,-1.68169 c 0.0346,-0.0349 0.049,-0.0854 0.0374,-0.13335 -0.0113,-0.048 -0.0469,-0.0868 -0.0938,-0.1023 -0.38241,-0.127 -0.78069,-0.19156 -1.18357,-0.19156 -0.98742,0 -1.91382,0.38488 -2.60808,1.08338 -0.88406,0.88971 -1.24796,2.1488 -0.98228,3.38201 l -1.43231,1.45454 c -0.029,0.0294 -0.0437,0.0699 -0.0407,0.11077 0.003,0.0413 0.0237,0.079 0.0567,0.10336 0.007,0.005 0.69906,0.526 1.36659,1.21956 0.61186,0.63613 1.2398,1.37516 1.2458,1.3826 0.0257,0.0303 0.0632,0.0487 0.10266,0.05 0.002,4e-4 0.004,4e-4 0.006,4e-4 0.0374,0 0.0734,-0.0148 0.10019,-0.0413 l 1.45979,-1.42974 c 0.25047,0.0518 0.50624,0.0779 0.76165,0.0779 0.99166,0 1.92158,-0.38625 2.61832,-1.08821 0.98742,-0.99413 1.31938,-2.44934 0.86642,-3.79769" />
    <path
       inkscape:connector-curvature="0"
       id="path300"
       style="fill:#ffffff;fill-opacity:1;fill-rule:nonzero;stroke:none;stroke-width:0.03527778"
       d="m 115.05944,168.53962 c -0.29545,-0.24102 -0.58374,-0.46429 -0.85397,-0.7064 -0.66051,-0.59228 -1.25787,-1.2427 -1.78622,-1.95474 l 0.12157,-0.15311 c 0.28165,-0.35595 0.49261,-0.74993 0.63016,-1.16872 0.0849,-0.0106 0.1699,-0.0212 0.25506,-0.0299 0.83414,-0.0893 1.6709,-0.11578 2.50913,-0.0671 0.27341,0.0156 0.54751,0.0317 0.84102,0.0491 -0.12897,1.46968 -0.73822,2.89003 -1.71675,4.03091 z m -4.91974,2.48458 c -0.0361,-0.46895 -0.078,-0.9332 -0.10184,-1.39817 -0.0128,-0.24761 -0.0153,-0.49455 -0.0102,-0.74083 l 1.5846,-1.99206 c 0.64065,0.50764 1.24933,1.05156 1.80884,1.65213 0.26141,0.28042 0.51509,0.56761 0.77018,0.85079 -1.14681,0.95292 -2.55199,1.51447 -4.05158,1.62814 z m -1.1625,-0.74553 c -0.014,0.24282 -0.0293,0.4862 -0.0449,0.74084 -1.51586,-0.13325 -2.8997,-0.75241 -3.99909,-1.69471 0.32618,-0.381 0.63253,-0.75279 0.95938,-1.1042 0.47805,-0.51318 1.00129,-0.97511 1.55762,-1.39763 l 1.53539,1.93036 c 0.0223,0.50769 0.021,1.01632 -0.008,1.52534 z m -6.54005,-5.81931 c 0.48095,-0.0364 0.94922,-0.0777 1.41775,-0.0999 0.69247,-0.0335 1.37901,0.0102 2.06167,0.10061 0.13575,0.45501 0.35789,0.88261 0.66131,1.26601 l 0.0664,0.0836 c -0.39934,0.51442 -0.81992,1.01078 -1.28266,1.47077 -0.40764,0.40569 -0.83372,0.79332 -1.26587,1.19807 -0.93543,-1.11277 -1.53995,-2.50652 -1.65862,-4.0192 z m -0.001,-1.19708 c 0.11176,-1.46322 0.69247,-2.87927 1.65298,-4.02622 0.38227,0.32812 0.75734,0.63789 1.11358,0.96739 0.40061,0.37041 0.76951,0.76976 1.11333,1.1909 -0.32745,0.53482 -0.52574,1.15673 -0.55259,1.82217 -0.60953,0.0469 -1.21959,0.0896 -1.83004,0.10432 -0.49829,0.012 -0.99797,-0.036 -1.49711,-0.0586 z m 6.53468,-6.58068 c 0.0376,0.49607 0.0813,0.97825 0.10608,1.46085 0.0254,0.49114 0.0115,0.97938 -0.03,1.46512 -0.75311,0.10199 -1.43633,0.42541 -1.98271,0.90233 -0.4753,-0.40029 -0.92992,-0.82405 -1.3571,-1.27948 -0.25714,-0.27411 -0.50631,-0.55662 -0.76952,-0.84942 1.14297,-0.97967 2.53849,-1.56644 4.03328,-1.6994 z m 1.20425,0.0918 c 0.002,-0.0314 0.007,-0.0628 0.0134,-0.0992 1.46942,0.11617 2.89225,0.70954 4.04138,1.67252 -0.49611,0.65595 -1.01727,1.27331 -1.63463,1.79846 -0.16206,0.13769 -0.32727,0.27202 -0.49336,0.40544 -0.52624,-0.47448 -1.18551,-0.80408 -1.9142,-0.92579 -0.0324,-0.46203 -0.0594,-0.92453 -0.0707,-1.38741 -0.0121,-0.48725 0.0357,-0.9762 0.0581,-1.46402 z m 2.60586,6.59874 c 0,0.73134 -0.23975,1.42088 -0.693,1.9939 l -2.52843,3.17884 -2.528,-3.17817 c -0.45364,-0.57369 -0.69356,-1.26323 -0.69356,-1.99457 0,-1.77627 1.44529,-3.22157 3.22156,-3.22157 1.77631,0 3.22143,1.4453 3.22143,3.22157 z m 3.99496,-0.101 c -0.25714,0.0329 -0.50451,0.0707 -0.75297,0.0918 -0.7608,0.0656 -1.52368,0.0762 -2.28314,-0.003 -0.12732,-0.0131 -0.25453,-0.0286 -0.38156,-0.0456 -0.0101,-0.66806 -0.1935,-1.29494 -0.50726,-1.83787 0.33115,-0.40047 0.67853,-0.78673 1.05297,-1.15012 0.38555,-0.37388 0.78503,-0.73382 1.19736,-1.1169 0.97289,1.14515 1.55056,2.55447 1.6746,4.0615 z m -1.57498,-5.01745 c -1.46843,-1.47754 -3.44812,-2.29458 -5.57431,-2.2998 -0.007,0 -0.014,0 -0.0212,0 -2.13141,0 -4.11787,0.8103 -5.59498,2.28314 -1.48001,1.47574 -2.29704,3.46396 -2.30089,5.59827 -0.004,2.13431 0.80504,4.12503 2.27775,5.60599 1.47545,1.48375 3.46713,2.30258 5.60793,2.30576 0.004,0 0.007,0 0.011,0 4.36591,0 7.8401,-3.464 7.91132,-7.89027 v -0.002 c -0.0317,-2.14092 -0.85439,-4.13027 -2.31662,-5.60132" />
    <path
       inkscape:connector-curvature="0"
       id="path302"
       style="fill:#ed1443;fill-opacity:1;fill-rule:nonzero;stroke:none;stroke-width:0.03527778"
       d="m 111.42872,163.32553 c 0,1.03078 -0.83866,1.8693 -1.86958,1.8693 -1.03092,0 -1.86958,-0.83852 -1.86958,-1.8693 0,-1.0312 0.83866,-1.86972 1.86958,-1.86972 1.03092,0 1.86958,0.83852 1.86958,1.86972 z m -1.86958,-3.175 c -1.77627,0 -3.22157,1.4453 -3.22157,3.22157 0,0.73134 0.23993,1.42088 0.69356,1.99457 l 2.52801,3.17817 2.52843,-3.17884 c 0.45325,-0.57302 0.69299,-1.26256 0.69299,-1.9939 0,-1.77627 -1.44512,-3.22157 -3.22142,-3.22157" />
    <path
       inkscape:connector-curvature="0"
       id="path304"
       style="fill:#ffffff;fill-opacity:1;fill-rule:nonzero;stroke:none;stroke-width:0.03527778"
       d="m 109.55914,164.61634 c -0.71191,0 -1.2911,-0.57933 -1.2911,-1.29081 0,-0.71191 0.57919,-1.29124 1.2911,-1.29124 0.7119,0 1.29095,0.57933 1.29095,1.29124 0,0.71148 -0.57905,1.29081 -1.29095,1.29081 z m -1.86958,-1.29081 c 0,1.03078 0.83866,1.8693 1.86958,1.8693 1.03092,0 1.86958,-0.83852 1.86958,-1.8693 0,-1.0312 -0.83866,-1.86972 -1.86958,-1.86972 -1.03092,0 -1.86958,0.83852 -1.86958,1.86972" />
  </g>
</svg>
